<?xml version="1.0" encoding="UTF-8" standalone="no"?>
<!DOCTYPE svg PUBLIC "-//W3C//DTD SVG 1.1//EN" "http://www.w3.org/Graphics/SVG/1.1/DTD/svg11.dtd">
<svg width="100%" height="100%" viewBox="0 0 152 285" version="1.1" xmlns="http://www.w3.org/2000/svg" xmlns:xlink="http://www.w3.org/1999/xlink" xml:space="preserve" xmlns:serif="http://www.serif.com/" style="fill-rule:evenodd;clip-rule:evenodd;stroke-linejoin:round;stroke-miterlimit:2;">
    <g id="Artboard1" transform="matrix(0.959944,0,0,0.973703,-17.2194,-8.23254)">
        <rect x="17.938" y="8.455" width="158.182" height="291.975" style="fill:none;"/>
        <g transform="matrix(0.104173,0,0,-0.102701,-17.4127,298.201)">
            <path d="M424,2786C383,2768 366,2724 374,2660C388,2557 447,2401 490,2355C527,2315 530,2287 505,2233C493,2205 479,2163 476,2139C472,2115 464,2067 458,2033C442,1948 459,1873 512,1795C566,1716 596,1684 631,1669L660,1657L654,1424L647,1191L675,1115C690,1073 701,1038 699,1036C697,1034 653,1039 603,1048C487,1068 459,1061 446,1007C434,958 452,864 479,839C491,827 537,675.64 530,530C527.168,471.068 533,328 537,212C543,14 544,0 562,0C580,0 580,11 575,278C571,430 568,580 566,610C561,702 530,840 510,860C486,884 474,963 489,996C502,1025 533,1027 605,1006C648,993 656,993 689,1008C711,1019 724,1032 724,1043C723,1052 726,1060 730,1060C735,1060 711,1103 712,1108C713,1112 708,1135 700,1160C691,1194 689,1258 694,1427C700,1640 699,1651 681,1667C585.197,1735.02 561,1793 544,1815C508,1863 488,1938 496,2000C499,2025 502,2055 503,2067C504,2078 528,2191 539,2216C567,2279 565,2309 530,2361C514,2385 489,2429.26 475,2460C463,2490 422,2597 415,2654C412,2681 412,2681 403,2713C415,2737.31 440,2750 466,2750C483,2750 647,2673 670,2655C678,2648 722,2628 768,2609C813,2591 850,2573 850,2568C850,2564 856,2563 863,2566C870,2568 885,2561 897,2550C909,2539 923,2530 929,2530C936,2530 950,2507 950,2494C950,2492 930,2490 905,2490C876,2490 857,2495 854,2503C843,2533 791,2559 733,2565C701,2568 668,2573 659,2576C650,2578 637,2574 631,2566C621,2554 625,2550 652,2541C670,2536 712,2528 746,2524C803,2518 807,2516 816,2486L825,2455L900,2455C1045.13,2460 1002,2516 1002,2516C970,2546 918,2582 885,2598C852,2613 745,2664 648,2713C550,2761 467,2800 463,2800C459,2799 441,2793 424,2786Z" style="fill-rule:nonzero;"/>
            <path d="M1663,2606C1634,2599 1593,2581 1571,2567C1550,2553 1503,2534 1469,2525C1434,2516 1378,2501 1345,2490C1312,2480 1245,2469 1195,2465C1146,2462 1078,2453 1045,2445C1012,2437 956,2426 920,2420C884,2414 834,2403 808,2395C780,2387 760,2385 760,2391C760,2404 685,2484 638,2521C580,2567 589,2531 651,2467C679,2438 706,2407 712,2397C717,2387 736,2372 754,2365C787,2351 813,2355 955,2393C977,2399 1051,2418 1070,2418C1108,2419 1195,2427 1195,2430C1195,2431 1222,2434 1255,2437C1288,2440 1364,2455 1424,2471C1506,2493 1536,2498 1544,2489C1552,2481 1424,2416 1386,2396C1322,2361 1312,2358 1249,2362C1212,2364 1174,2353 1155,2352C1136,2351 1073,2327 1012,2296C952,2266 850,2203 838,2190C808,2145.03 795,2103.62 712,2062.98C710,2040.98 687.883,2015.04 705,1973C709,1946 728,1917 771,1871C803,1835 830,1801 830,1794C830,1788 844,1768 860,1750C877,1732 890,1723 890,1729C890,1735 898,1740 908,1740C918,1740 930,1743 933,1747C937,1750 950,1754 963,1756C975,1757 995,1761 1007,1765C1026,1771 1031,1767 1040,1744C1045,1728 1055,1707 1060,1697C1066,1687 1068,1675 1065,1670C1061,1664 1063,1660 1068,1660C1073,1660 1077,1645 1078,1626C1080,1584 1050,1555 991,1541C967,1536 943,1526 939,1518C933,1509 888,1509.26 876,1545C866,1572 850,1560 850,1525C850,1491 851,1490 888,1490C909,1490 932,1484 939,1478C949,1467 953,1468 961,1483C967,1492 981,1500 994,1500C1033,1500 1107,1555 1115,1589C1123,1626 1114,1676 1094,1708C1086,1720 1080,1736 1082,1743C1087,1769 1068,1798 1039,1810C1014,1821 1007,1820 991,1806C982,1797 962,1790 949,1790C935,1790 914,1783 902,1774C881,1760 879,1760 870,1785C864,1799 860,1815 860,1820C860,1825 831,1860 795,1899C741,1958 730,1976 730,2005C730,2034 736,2043 775,2070C800,2087 827,2114 835,2130C857,2172 890,2194 1028,2260C1145,2316 1158,2320 1225,2320C1322,2320 1372,2337 1488,2409C1543,2443 1591,2470 1595,2470C1600,2470 1611,2463 1621,2454C1644,2433 1665,2441 1689,2481C1701,2500 1733,2526 1767,2544C1808,2566 1825,2581 1825,2595C1825,2612 1818,2615 1770,2617C1740,2618 1691,2613 1663,2606ZM1703,2563C1706,2558 1702,2549 1694,2542C1686,2535 1680,2533 1680,2537C1679,2541 1672,2533 1664,2517C1651,2493 1645,2490 1604,2494C1561,2497 1529,2510 1563,2510C1573,2510 1580,2515 1580,2520C1580,2532 1656,2569 1682,2570C1691,2570 1701,2567 1703,2563Z" style="fill-rule:nonzero;"/>
            <path d="M816,1538C796,1492 782,1399 774,1265C771,1205 767,1140 766,1122C764,1104 767,1087 772,1084C776,1081 780,1071 780,1061C780,1042 816,998.616 945,973C969.58,968.119 1058,946 1238,925C1449,900 1518.3,893.408 1531,868C1536,858 1541,810 1541,760L1541,638L1501,629C1459,621.406 1459,584 1459,577C1454,526 1446,80 1449,18C1450,8 1456,0 1464,0C1478,0 1488,161 1493,470L1495,595L1526,598C1551,600 1559,608 1570,638C1597,713 1578,903 1541,924C1538,926 1414,942 1265,960C1055,985 930.995,1004.6 857,1044C803,1054 794,1079 808,1182C815,1228 820,1299 821,1340C821,1381 825,1449 829,1490C833,1531 835,1567 834,1569C832,1571 824,1557 816,1538Z" style="fill-rule:nonzero;"/>
            <path d="M624,817L595,792L595,483C596,314 599,136 604,88C611,11 614,0 631,0C641,0 650,6 650,13C650,19 645,117 640,230C626,542 629,782 646,799C651,805 706,791 1005,709C1296,630 1279.43,629.756 1290,606C1320,538.549 1320,425 1320,234C1320,4 1320,0 1341,0C1361,0 1361,2 1357,258C1351,540 1348,575 1325,620C1304,660 1279,675 1190,698C1149,709 818,799 788,809C689,843 656,845 624,817Z" style="fill-rule:nonzero;"/>
        </g>
    </g>
</svg>
